HIERARCHY
ROOT hip
{
	OFFSET 0.000000 0.000000 0.000000 
	CHANNELS 6 Xposition Yposition Zposition Xrotation Zrotation Yrotation
	JOINT abdomen
	{
		OFFSET 0.000000 3.402643 0.000000 
		CHANNELS 3 Xrotation Zrotation Yrotation
		JOINT chest
		{
			OFFSET 0.000000 8.438565 -0.680529 
			CHANNELS 3 Xrotation Zrotation Yrotation
			JOINT neck
			{
				OFFSET 0.000000 10.207942 -0.272212 
				CHANNELS 3 Xrotation Zrotation Yrotation
				JOINT head
				{
					OFFSET 0.000000 3.130431 0.000000 
					CHANNELS 3 Xrotation Zrotation Yrotation
					End Site
					{
						OFFSET 0.000000 3.130435 0.000000 
					}
				}
			}
			JOINT lCollar
			{
				OFFSET 3.470700 6.669187 -0.816635 
				CHANNELS 3 Yrotation Zrotation Xrotation
				JOINT lShldr
				{
					OFFSET 3.198488 0.000000 0.000000 
					CHANNELS 3 Zrotation Yrotation Xrotation
					JOINT lForeArm
					{
						OFFSET 10.139888 0.000000 0.000000 
						CHANNELS 3 Yrotation Zrotation Xrotation
						JOINT lHand
						{
							OFFSET 8.370511 0.000000 0.000000 
							CHANNELS 3 Zrotation Yrotation Xrotation
							End Site
							{
								OFFSET 4.083176 0.000000 0.000000 
							}
						}
					}
				}
			}
			JOINT rCollar
			{
				OFFSET -3.470700 6.669187 -0.816635 
				CHANNELS 3 Yrotation Zrotation Xrotation
				JOINT rShldr
				{
					OFFSET -3.198488 0.000000 0.000000 
					CHANNELS 3 Zrotation Yrotation Xrotation
					JOINT rForeArm
					{
						OFFSET -10.139888 0.000000 0.000000 
						CHANNELS 3 Yrotation Zrotation Xrotation
						JOINT rHand
						{
							OFFSET -8.370511 0.000000 0.000000 
							CHANNELS 3 Zrotation Yrotation Xrotation
							End Site
							{
								OFFSET -4.083176 0.000000 0.000000 
							}
						}
					}
				}
			}
		}
	}
	JOINT lThigh
	{
		OFFSET 5.308129 -1.633274 1.361059 
		CHANNELS 3 Xrotation Zrotation Yrotation
		JOINT lShin
		{
			OFFSET -2.041588 -20.007561 0.000000 
			CHANNELS 3 Xrotation Zrotation Yrotation
			JOINT lFoot
			{
				OFFSET 0.000000 -19.190928 -1.224953 
				CHANNELS 3 Xrotation Yrotation Zrotation
				End Site
				{
					OFFSET 0.000000 -2.449906 4.627600 
				}
			}
		}
	}
	JOINT rThigh
	{
		OFFSET -5.308129 -1.633274 1.361059 
		CHANNELS 3 Xrotation Zrotation Yrotation
		JOINT rShin
		{
			OFFSET 2.041588 -20.007561 0.000000 
			CHANNELS 3 Xrotation Zrotation Yrotation
			JOINT rFoot
			{
				OFFSET 0.000000 -19.190928 -1.224953 
				CHANNELS 3 Xrotation Yrotation Zrotation
				End Site
				{
					OFFSET 0.000000 -2.449906 4.627600 
				}
			}
		}
	}
}
MOTION
Frames: 8
Frame Time: 0.011111
26.264830 51.722431 20.273241 -4.394631 0.511582 61.431118 35.475796 -3.243463 -4.487289 -25.524645 5.148089 -0.879493 -3.712249 -10.839763 -9.711093 57.791500 26.970808 -3.742709 2.031638 -6.576056 1.601014 -62.336082 -25.222498 24.601732 -56.912994 8.945848 11.039962 8.524705 12.647240 -50.413467 -3.949096 7.981833 2.064568 68.956291 22.210415 8.020047 67.322517 -9.385345 15.786001 -8.534408 -12.637552 45.150246 -5.287654 7.610477 -2.178419 33.741913 -5.108375 -5.341580 -20.417999 -7.579657 -5.606477 -12.654224 -4.598789 -10.419122 36.416080 4.926821 5.611759 -26.431446 7.858825 6.069179 
26.154341 51.775955 20.338600 -4.467924 0.436251 60.774128 35.507160 -3.206831 -4.280503 -25.523304 4.966932 -0.823532 -3.751807 -10.875297 -9.699687 57.697731 26.976349 -3.766827 2.031638 -6.576056 1.601014 -62.502884 -26.129435 23.144650 -55.916965 8.810337 10.614484 8.524705 12.647240 -50.755260 -3.949096 7.981833 2.064568 69.324928 22.029593 7.854013 66.920723 -9.408847 15.595581 -8.534408 -12.637552 44.945171 -5.181809 7.846456 -1.968648 33.464840 -5.118497 -5.290313 -20.323784 -7.211597 -5.444576 -12.612531 -4.616315 -11.284966 36.604877 4.901890 5.659234 -26.698019 5.822277 5.000991 
26.020821 51.817043 20.407070 -4.595496 0.405057 60.140705 35.667519 -3.217887 -4.086303 -25.572027 4.923057 -0.764886 -3.702019 -10.875942 -9.691525 57.471638 26.939892 -3.871403 2.031638 -6.576056 1.601014 -62.668804 -26.919178 21.423998 -55.049603 8.679312 10.242054 8.524705 12.647240 -51.839245 -3.949096 7.981833 2.064568 69.606613 21.901033 7.786088 66.465012 -9.431093 15.391142 -8.534408 -12.637552 44.671730 -5.045299 8.129928 -1.757766 33.197063 -5.122726 -5.277776 -20.256712 -6.782846 -5.270837 -12.457706 -4.529334 -12.006323 36.763321 4.892269 5.679728 -26.960581 3.706672 3.902012 
25.885122 51.832607 20.475853 -4.570557 0.500542 59.477070 35.876663 -3.442520 -4.035604 -25.630962 4.936581 -0.722218 -3.779834 -10.878136 -9.663321 57.501614 26.846031 -3.883057 2.031638 -6.576056 1.601014 -62.702755 -27.348610 20.164860 -54.721077 8.623111 10.101500 8.524705 12.647240 -52.434948 -3.949096 7.981833 2.064568 69.839203 21.784176 7.735898 65.953682 -9.444616 15.141709 -8.534408 -12.637552 44.212746 -4.803792 8.182247 -1.530546 32.966595 -5.147808 -5.254282 -20.331755 -6.253875 -5.070902 -12.250255 -4.693582 -12.979515 36.902363 4.882612 5.688785 -27.009794 1.665985 2.881616 
25.759071 51.858753 20.535297 -4.469900 0.509874 58.811783 35.928719 -3.650598 -3.935738 -25.699335 4.901475 -0.675781 -3.877311 -10.921733 -9.618025 57.613964 26.766245 -3.836482 2.031638 -6.576056 1.601014 -62.704914 -27.563448 19.432409 -54.689819 8.619810 10.090116 8.524705 12.647240 -52.268936 -3.949096 7.981833 2.064568 70.040222 21.629459 7.616266 65.431496 -9.453822 14.893791 -8.534408 -12.637552 43.626808 -4.681652 8.174705 -1.433150 32.729004 -5.151983 -5.224902 -20.363031 -5.665308 -4.832764 -12.211937 -4.977130 -13.797078 37.049183 4.888614 5.713255 -26.886280 0.201555 2.146972 
25.640491 51.901703 20.593811 -4.377821 0.418599 58.107021 35.821827 -3.803537 -3.716427 -25.698538 4.791326 -0.596594 -3.925486 -10.899649 -9.600133 57.741074 26.701452 -3.829089 2.031638 -6.576056 1.601014 -62.577900 -27.720703 18.999851 -54.721077 8.623111 10.101500 8.524705 12.647240 -51.907604 -3.949096 7.981833 2.064568 70.298286 21.423519 7.573235 64.953156 -9.461176 14.669147 -8.534408 -12.637552 43.187359 -4.644525 8.226096 -1.402323 32.488396 -5.186789 -5.164234 -20.357948 -5.114835 -4.602398 -12.272741 -5.183733 -14.327200 37.209370 4.862614 5.729258 -26.659744 -0.928048 1.655476 
25.531248 51.947762 20.652325 -4.277712 0.424599 57.306221 35.748955 -4.056577 -3.512724 -25.755850 4.584382 -0.503084 -3.746228 -10.752769 -9.621417 57.636230 26.637262 -3.899448 2.031638 -6.576056 1.601014 -62.291340 -27.752237 18.602871 -54.763279 8.628950 10.112824 8.524705 12.647240 -51.497448 -3.949096 7.981833 2.064568 70.670868 21.124895 7.602731 64.506828 -9.465651 14.467357 -8.534408 -12.637552 42.943218 -4.461921 8.221231 -1.244737 32.239708 -5.196147 -5.145013 -20.369841 -4.484698 -4.348076 -12.302310 -5.447520 -14.512974 37.397266 4.853048 5.752278 -26.442331 -1.940881 1.191057 
25.426050 51.980759 20.707102 -4.214749 0.439327 56.480450 35.717381 -4.188971 -3.369968 -25.822695 4.334886 -0.444970 -3.672207 -10.590784 -9.569302 57.550880 26.477978 -3.886958 2.031638 -6.576056 1.601014 -62.024265 -27.754282 18.001245 -54.795742 8.637835 10.133583 8.524705 12.647240 -51.009163 -3.949096 7.981833 2.064568 71.007408 20.905855 7.702675 64.070076 -9.464101 14.267901 -8.534408 -12.637552 42.786964 -4.245657 8.208858 -1.087950 32.020493 -5.206413 -5.127860 -20.370283 -3.679638 -4.055589 -12.291262 -5.729537 -14.638704 37.565434 4.843429 5.773543 -26.173479 -2.609647 0.952273 
